<svg width="14" height="15" viewBox="0 0 14 15" fill="none" xmlns="http://www.w3.org/2000/svg">
<path d="M3.88889 0.5C1.74456 0.5 0 2.24456 0 4.38889V10.6111C0 12.7554 1.74456 14.5 3.88889 14.5H10.1111C12.2554 14.5 14 12.7554 14 10.6111V4.38889C14 2.24456 12.2554 0.5 10.1111 0.5H3.88889ZM3.88889 2.05556H10.1111C11.3976 2.05556 12.4444 3.10244 12.4444 4.38889V10.6111C12.4444 11.8976 11.3976 12.9444 10.1111 12.9444H3.88889C2.60244 12.9444 1.55556 11.8976 1.55556 10.6111V4.38889C1.55556 3.10244 2.60244 2.05556 3.88889 2.05556ZM10.8889 2.83333C10.6826 2.83333 10.4848 2.91528 10.3389 3.06114C10.1931 3.207 10.1111 3.40483 10.1111 3.61111C10.1111 3.81739 10.1931 4.01522 10.3389 4.16108C10.4848 4.30694 10.6826 4.38889 10.8889 4.38889C11.0952 4.38889 11.293 4.30694 11.4389 4.16108C11.5847 4.01522 11.6667 3.81739 11.6667 3.61111C11.6667 3.40483 11.5847 3.207 11.4389 3.06114C11.293 2.91528 11.0952 2.83333 10.8889 2.83333ZM7 3.61111C4.85567 3.61111 3.11111 5.35567 3.11111 7.5C3.11111 9.64433 4.85567 11.3889 7 11.3889C9.14433 11.3889 10.8889 9.64433 10.8889 7.5C10.8889 5.35567 9.14433 3.61111 7 3.61111ZM7 5.16667C8.28644 5.16667 9.33333 6.21356 9.33333 7.5C9.33333 8.78644 8.28644 9.83333 7 9.83333C5.71356 9.83333 4.66667 8.78644 4.66667 7.5C4.66667 6.21356 5.71356 5.16667 7 5.16667Z" fill="white"/>
</svg>
